<svg fill="none" viewBox="0 0 43 52"><g clip-path="url(#a)"><path fill="#fff" d="M21.034 51.941a17 17 0 0 0-.467-.09.4.4 0 0 1-.21-.092c-.03-.036-.085-.066-.12-.066-.105 0-.639-.357-.912-.61-.363-.336-.982-1.118-.982-1.241 0-.058-.064-.178-.142-.267-.079-.09-.143-.19-.145-.224a1 1 0 0 0-.1-.248c-.053-.103-.092-.214-.086-.245.007-.032-.023-.122-.066-.2-.09-.167-.221-.606-.28-.94-.022-.129-.073-.41-.113-.624-.05-.27-.06-.427-.027-.51a1 1 0 0 0 .046-.276c0-.135-.02-.162-.138-.187-.207-.045-.968-.807-.968-.97 0-.046-.024-.1-.054-.117-.071-.044-.025-.672.063-.852.053-.108.096-.132.233-.132h.167v.376c0 .297.022.417.105.569.139.253.56.678.672.678.049 0 .116.042.149.094.033.051.098.094.144.094s.24.063.433.14c.193.076.463.153.6.17.139.017.295.053.347.08.26.132 3.377.194 3.713.074a2 2 0 0 1 .336-.067c.261-.033.69-.164.902-.274a.7.7 0 0 1 .222-.076.2.2 0 0 0 .137-.069.4.4 0 0 1 .162-.1c.322-.095.637-.54.665-.937.006-.094.027-.18.046-.192.055-.033.282.284.282.394 0 .054.019.147.042.208.088.226-.454.925-.721.93-.183.003-.224.161-.26 1.016-.043.995-.12 1.634-.22 1.818-.028.05-.038.122-.023.16.037.094-.138.59-.292.83a3 3 0 0 0-.196.359c-.07.163-.302.523-.429.663-.365.404-.534.535-.965.745-.55.27-.98.327-1.55.208m1.196-.608c.648-.304.759-.388.909-.685.01-.019-.11.04-.263.131-.356.21-.613.29-.702.217-.05-.04-.149.004-.432.193-.203.135-.369.261-.37.28 0 .02.11.036.245.036.184 0 .338-.043.613-.172m-1.468-.247a7 7 0 0 0 .312-.305c.123-.127.37-.376.548-.553s.303-.322.279-.322-.058.02-.073.046c-.017.026-.176.139-.355.252-.179.114-.38.257-.448.319a3 3 0 0 1-.3.23c-.195.128-.412.332-.412.386 0 .018.06.065.132.104.119.062.137.062.18-.006a.8.8 0 0 1 .137-.15zm1.72-.32c.109-.07.172-.136.14-.146s-.105.026-.165.08-.132.1-.162.1a.11.11 0 0 0-.084.047c-.054.086.072.048.271-.08m-2.53-.202c.074-.103.153-.188.176-.188s.313-.259.644-.576.73-.681.887-.81c.156-.128.277-.24.267-.249s-.122.046-.25.122a3 3 0 0 1-.42.203c-.103.035-.276.14-.385.233a1.2 1.2 0 0 1-.317.206.7.7 0 0 0-.217.12c-.153.133-.716.375-.876.375-.167 0-.24-.07-.28-.264-.03-.146-.06-.114.801-.874.122-.108.263-.21.313-.23.133-.049.666-.56.584-.56-.039 0-.118.04-.175.088a1.1 1.1 0 0 1-.26.15c-.202.08-1.105.654-1.155.735-.021.034-.146.116-.278.181-.254.126-.332.228-.242.316.03.03.054.081.054.115 0 .173.79 1.096.939 1.096.032 0 .117-.085.19-.189m2.714-.586c.089-.064.264-.15.39-.191.126-.04.255-.105.287-.142.032-.038.14-.068.24-.068.229 0 .334-.1.334-.313 0-.09.021-.202.046-.248.071-.13.162-.653.173-.998l.01-.313-.174.1a2 2 0 0 0-.253.172 9 9 0 0 1-.45.33c-.4.28-.99.764-.963.79.016.016.086-.017.684-.313.163-.082.319-.148.345-.148.096 0 .198.152.198.297 0 .15-.058.217-.627.72-.205.182-.454.441-.424.441a1 1 0 0 0 .184-.116m-3.978-1.426a8 8 0 0 0 .326-.292c.067-.065.22-.194.338-.288s.288-.235.375-.315a1 1 0 0 1 .261-.177c.057-.018.202-.1.323-.182a9 9 0 0 1 .435-.276c.24-.14.253-.133-.352-.144l-.375-.006-.36.364c-.198.2-.347.365-.331.365a1 1 0 0 0 .175-.074c.205-.104.24-.037.058.113-.198.164-.7.523-1.002.717l-.254.163c-.007.004.01.066.036.135.056.142.06.141.347-.103m2.932-.269c.078-.065.177-.117.219-.117a.3.3 0 0 0 .154-.07c.043-.037.223-.122.4-.187s.362-.158.412-.207.212-.126.36-.171c.15-.046.295-.112.325-.148a.23.23 0 0 1 .153-.064.3.3 0 0 0 .18-.072.7.7 0 0 1 .292-.107c.209-.035.212-.038.315-.34.057-.167.106-.33.108-.363.007-.092-.164-.069-.26.035a.32.32 0 0 1-.199.094c-.187 0-.487.142-.681.323-.304.282-.64.545-.748.585a1 1 0 0 0-.222.146 2 2 0 0 1-.3.213c-.1.058-.18.12-.18.139 0 .018-.098.094-.217.167-.214.133-.357.262-.29.262.02 0 .1-.053.178-.118m-3.181-.6c0-.048-.012-.045-.185.039-.093.046-.151.11-.151.167 0 .084.014.081.168-.039.092-.072.168-.147.168-.167m2.499-.199a.4.4 0 0 0 .144-.07c.013-.017.186-.102.384-.187.498-.214.677-.302.705-.345.014-.02-.026-.025-.088-.01a4 4 0 0 1-.489.038l-.376.012-.38.369c-.21.203-.38.388-.38.41 0 .023.08-.008.18-.069s.234-.128.3-.148m-2.74-.306a.5.5 0 0 1 .182-.093c.104-.002.596-.294.555-.33a1.3 1.3 0 0 0-.304-.088 2 2 0 0 1-.402-.125.7.7 0 0 0-.24-.07c-.092 0-.102.023-.092.224.017.349.067.576.127.575.03 0 .109-.043.175-.093m2.692-2.218c-.463-.02-.992-.069-1.178-.108a8 8 0 0 0-.6-.1 1.2 1.2 0 0 1-.374-.098c-.06-.037-.128-.056-.151-.042-.053.032-.738-.184-.971-.306a1 1 0 0 0-.233-.092c-.097 0-.633-.342-.698-.445-.034-.052-.074-.246-.09-.431l-.03-.336.186-.187c.116-.117.243-.195.338-.21l.152-.021-.032.215a1 1 0 0 1-.067.263c-.075.098-.1.386-.037.434.109.085.52.295.575.295.03 0 .089.028.13.063.085.07.703.266.84.266a.8.8 0 0 1 .238.065c.084.036.314.089.512.118s.425.065.505.08c.548.102 3.145.121 3.33.024a2 2 0 0 1 .395-.096c.365-.062.556-.128.714-.246a.4.4 0 0 1 .185-.086c.038 0 .17-.068.294-.152s.229-.154.234-.155.045-.14.086-.307.096-.34.12-.384a.2.2 0 0 0 .018-.152c-.02-.051.001-.073.072-.073.141 0 .246.27.246.632 0 .24-.024.328-.14.506-.14.218-.511.508-.648.508-.041 0-.184.066-.317.146-.592.356-1.77.491-3.604.411m-.256-1.906c-.019-.018-.34-.049-.913-.088a2.7 2.7 0 0 1-.553-.089c-.346-.125-.726-.222-.769-.196-.069.041-.602-.158-.68-.255a.54.54 0 0 0-.198-.134c-.09-.032-.135-.091-.156-.202-.043-.223-.413-1.409-.473-1.517-.045-.081-.085-.281-.163-.803a1.2 1.2 0 0 0-.077-.29c-.028-.055-.04-.13-.028-.164.012-.035-.007-.146-.042-.246a1.3 1.3 0 0 1-.065-.373c0-.105-.03-.224-.066-.264-.059-.068-.109-.246-.218-.78a5 5 0 0 0-.142-.48 2 2 0 0 1-.103-.387c0-.085-.085-.313-.198-.532a.6.6 0 0 1-.042-.225.9.9 0 0 0-.09-.318 3 3 0 0 1-.169-.515 5 5 0 0 0-.164-.564 2 2 0 0 1-.086-.272c-.002-.093-.083-.332-.17-.504a.8.8 0 0 1-.09-.267c0-.095-.165-.652-.343-1.157a6 6 0 0 1-.14-.447 1.8 1.8 0 0 0-.262-.564.7.7 0 0 1-.087-.253.6.6 0 0 0-.11-.271c-.084-.09-.113-.135-.279-.423a.8.8 0 0 0-.18-.22c-.049-.034-.089-.083-.089-.11a.7.7 0 0 0-.12-.201.7.7 0 0 1-.12-.19c0-.02-.065-.11-.144-.198-.08-.088-.144-.185-.144-.215s-.047-.102-.103-.16c-.108-.113-.184-.23-.303-.464a3 3 0 0 0-.169-.282.6.6 0 0 1-.098-.204c0-.034-.064-.152-.142-.263-.16-.228-.387-.693-.387-.794 0-.037-.043-.121-.096-.187a.4.4 0 0 1-.096-.192c0-.04-.02-.084-.045-.099s-.079-.142-.12-.282c-.042-.14-.098-.269-.124-.285s-.047-.096-.047-.18-.035-.199-.076-.257c-.09-.126-.306-.744-.308-.881a.26.26 0 0 0-.04-.142c-.07-.08-.222-.832-.37-1.832-.112-.754-.15-2.198-.072-2.798l.118-.941c.03-.256.16-.775.287-1.145a5 5 0 0 0 .15-.501.8.8 0 0 1 .066-.212c.018-.026.084-.174.147-.33.063-.154.161-.356.218-.446a3 3 0 0 0 .192-.392c.049-.125.15-.31.224-.411s.136-.207.136-.235c0-.064.248-.423.49-.709.1-.12.183-.238.183-.263 0-.024.081-.118.18-.207a6 6 0 0 0 .33-.325c.337-.367 1.11-1.033 1.196-1.033.03 0 .196-.12.407-.295.338-.28 1.67-.959 2.188-1.116a5 5 0 0 0 .337-.117c.268-.11 1.274-.353 1.457-.353.055 0 .112-.021.128-.047.017-.026.11-.048.208-.049.097 0 .274-.023.393-.05.758-.173 2.91-.217 3.508-.072.172.041.383.075.47.076.086 0 .194.02.24.044s.332.09.636.148.573.123.598.145.091.04.147.04.121.017.146.039c.026.021.143.067.262.102.237.07.49.171.948.38.165.076.31.137.323.137.012 0 .146.085.297.188.15.104.293.189.316.189.051 0 .273.15.574.388.122.097.237.176.255.176.059 0 .383.248.58.443.106.106.29.28.409.387.311.282.699.687.736.77.017.038.147.214.29.39.141.177.287.378.323.447.036.07.124.222.195.338.07.117.167.307.213.424.047.116.131.285.188.376.057.09.155.291.217.447.063.155.132.302.153.326a.23.23 0 0 1 .038.13c0 .045.066.277.147.514.147.434.277.959.313 1.264.025.214.048.401.113.917.108.854.021 2.485-.186 3.474-.028.133-.06.306-.07.383s-.055.279-.1.447-.093.37-.108.447a.8.8 0 0 1-.09.235.4.4 0 0 0-.06.13c.003.109-.077.359-.156.487a.6.6 0 0 0-.091.234c0 .108-.15.496-.36.936-.086.181-.208.446-.27.588-.061.143-.183.37-.27.507-.086.136-.157.276-.157.311s-.041.114-.091.176-.125.192-.166.289-.097.175-.125.175-.05.03-.05.067-.055.13-.12.207a.6.6 0 0 0-.121.181c0 .023-.065.111-.144.196-.08.085-.144.176-.144.202a.7.7 0 0 1-.12.202.7.7 0 0 0-.12.19c0 .021-.05.085-.109.142-.16.155-.564.801-.564.905 0 .049-.087.257-.192.463-.105.205-.192.412-.192.459s-.041.184-.09.306a9 9 0 0 0-.341 1.137 1.2 1.2 0 0 1-.098.281 2 2 0 0 0-.166.543 1.5 1.5 0 0 1-.086.258 4 4 0 0 0-.154.54c-.047.208-.126.443-.176.524a.65.65 0 0 0-.091.283c0 .075-.046.252-.101.394a4 4 0 0 0-.14.423 9 9 0 0 1-.12.423 8 8 0 0 0-.118.423c-.116.494-.188.752-.225.808-.039.06-.147.562-.186.862-.019.149-.073.412-.188.917-.072.315-.098.404-.386 1.311-.094.294-.17.593-.17.663 0 .16-.126.274-.367.335a2 2 0 0 0-.282.09c-.528.238-.726.298-1.177.358-.278.036-.533.056-.568.043s-.158-.003-.274.023c-.2.043-1.686.097-1.721.062m1.746-.546a2 2 0 0 1 .408-.05 4 4 0 0 0 .649-.098 5 5 0 0 1 .568-.107c.15-.015.267-.053.282-.09.013-.035.096-.107.184-.16a.4.4 0 0 0 .192-.239c.025-.11.055-.138.136-.127.096.013.106-.013.14-.362.071-.746.148-1.273.205-1.411a2 2 0 0 0 .09-.424c.036-.33.183-1.019.295-1.387.044-.143.096-.333.117-.424.062-.276.25-.912.295-.999a.5.5 0 0 0 .043-.2.5.5 0 0 1 .044-.2c.067-.122.196-.524.247-.764.024-.117.064-.254.088-.306s.08-.232.125-.4a7 7 0 0 1 .172-.54c.05-.13.104-.3.122-.377a.7.7 0 0 1 .067-.188.6.6 0 0 0 .063-.188c.058-.298.234-.896.277-.939.024-.024.044-.092.044-.15s.019-.117.042-.13c.023-.015.056-.093.072-.174.044-.213.415-1.173.508-1.312a3 3 0 0 0 .16-.282c.116-.231.181-.328.355-.524.083-.094.165-.216.183-.27s.052-.1.077-.1.045-.032.045-.07c0-.04.054-.118.12-.174s.12-.12.12-.141c0-.022.076-.145.168-.273.093-.13.169-.247.169-.262s.061-.116.136-.224a4 4 0 0 0 .259-.455 2.7 2.7 0 0 1 .248-.42.8.8 0 0 0 .125-.201c0-.04.109-.288.317-.729a1.7 1.7 0 0 0 .116-.285c0-.022.043-.128.096-.236a1 1 0 0 0 .096-.256c0-.082.175-.547.232-.617a.7.7 0 0 0 .078-.22c.017-.09.06-.238.097-.329a6 6 0 0 0 .167-.635c.057-.258.136-.587.175-.729.04-.142.084-.417.099-.611l.044-.588c.064-.826.02-2.325-.08-2.752a10 10 0 0 1-.071-.33l-.111-.596c-.052-.279-.122-.512-.167-.556a.3.3 0 0 1-.078-.19c0-.098-.108-.417-.238-.703a7 7 0 0 1-.107-.258c-.086-.22-.371-.76-.448-.848a2 2 0 0 1-.16-.263c-.133-.258-.679-.924-1.225-1.494-.434-.453-.49-.504-.773-.702a7 7 0 0 1-.486-.374c-.111-.098-.218-.177-.238-.177s-.099-.044-.177-.1a7 7 0 0 0-.738-.409 2 2 0 0 1-.259-.157 1.3 1.3 0 0 0-.339-.152 6 6 0 0 1-.462-.159c-.583-.23-1.606-.493-2.156-.554a1.3 1.3 0 0 1-.317-.069c-.081-.042-.91-.072-1.585-.056-.198.005-.393.007-.432.005-.296-.014-1.313.072-1.48.126a1.4 1.4 0 0 1-.35.067c-.277 0-1.51.32-2.036.528-.13.051-.339.123-.462.159a1.3 1.3 0 0 0-.34.151 2 2 0 0 1-.258.158c-.34.167-.607.319-.726.41a.5.5 0 0 1-.176.099c-.027 0-.14.08-.25.176a7 7 0 0 1-.487.373c-.465.324-1.76 1.74-1.987 2.175-.049.092-.188.326-.31.52-.121.192-.22.369-.22.392 0 .042-.115.315-.196.465-.083.156-.237.625-.237.723 0 .055-.044.15-.097.209a.45.45 0 0 0-.096.263c0 .085-.02.167-.046.182-.025.016-.035.056-.021.09.013.033 0 .154-.03.268a7 7 0 0 0-.07.302l-.072.353c-.099.474-.142 2-.077 2.775l.048.615c.015.196.072.524.126.729.104.392.184.752.216.979.01.074.05.18.086.235a1 1 0 0 1 .101.283c.02.1.065.228.101.282.036.055.097.215.135.358.076.284.4 1.079.47 1.15a.18.18 0 0 1 .043.108c0 .035.043.151.096.258s.096.22.096.25.04.09.09.134.162.222.248.395.218.406.294.518c.075.11.137.21.137.221 0 .02.203.323.613.92.099.143.24.33.312.415s.132.184.132.22.02.067.042.067c.09 0 .73 1.413.804 1.778.017.084.05.164.073.178s.042.076.042.137c0 .06.03.17.068.244.037.073.115.313.173.533s.12.442.141.494c.046.116.343 1.054.484 1.528.057.194.17.565.248.823.078.26.162.545.185.635s.096.345.161.565c.306 1.03.455 1.624.49 1.952.017.156.09.545.165.87.098.433.143.736.143.972 0 .134.014.278.03.32.028.07.038.07.118-.001.114-.101.955-.311 1.294-.323a5 5 0 0 0 .592-.07l.327-.062-.03-.147a5 5 0 0 0-.073-.29 10 10 0 0 1-.17-.634 2 2 0 0 0-.062-.212 8 8 0 0 1-.249-.8c-.117-.52-.24-.973-.383-1.41a8.5 8.5 0 0 1-.283-1.106 1 1 0 0 0-.114-.33c-.044-.066-.103-.275-.13-.464a3.4 3.4 0 0 0-.165-.634 6 6 0 0 1-.2-.665 3 3 0 0 0-.15-.506 1.7 1.7 0 0 1-.11-.33c-.127-.575-.186-.792-.23-.846-.026-.032-.063-.162-.081-.289a1.3 1.3 0 0 0-.076-.305 1.6 1.6 0 0 1-.089-.335c-.056-.309-.215-.878-.257-.92a.8.8 0 0 0-.225-.072c-.548-.12-1.558-.786-1.611-1.062a1 1 0 0 0-.077-.207c-.165-.3.15-.975.43-.922a.26.26 0 0 0 .208-.049c.072-.064.12-.066.375-.013.16.034.342.1.403.147.062.047.17.108.24.134s.14.084.157.13.093.17.17.275c.11.154.143.26.166.54.017.193.059.392.095.443.035.05.065.139.065.196 0 .089.04.111.276.157.152.029.384.082.517.12.281.077.86.168 1.033.16.066-.002.25.015.408.04.31.048 2.581.042 2.98-.008l.648-.08c.5-.06.525-.065.913-.16l.433-.103c.164-.038.24-.105.24-.209 0-.048.064-.156.142-.24.117-.128.156-.146.228-.103a.25.25 0 0 1 .102.153c.009.056.047.101.086.101.119 0 .445-.183.498-.279a.28.28 0 0 1 .136-.118c.17-.053.276-.613.137-.726-.187-.152-.51.093-.752.57-.062.123-.14.224-.171.224-.151 0-.113-.76.05-1.003.208-.311.965-.446 1.194-.213.193.198.28.373.306.62.036.346-.142.731-.416.9-.11.068-.21.154-.225.19-.024.061-.507.313-.845.441-.076.029-.14.094-.151.157l-.1.507c-.044.22-.098.506-.12.635-.022.13-.073.352-.114.494-.162.565-.225.836-.225.974 0 .079-.034.223-.075.32-.041.096-.063.206-.048.244.014.037 0 .114-.03.17-.031.057-.084.24-.118.409-.102.506-.168.814-.211.987a10 10 0 0 0-.096.47 3 3 0 0 1-.104.424 2 2 0 0 0-.09.353c-.023.13-.061.33-.087.447-.024.116-.076.37-.113.564a2.3 2.3 0 0 1-.128.462c-.034.06-.05.138-.036.173.013.035-.016.197-.066.36-.05.165-.115.426-.146.581s-.074.33-.098.39a.9.9 0 0 0-.044.265 1 1 0 0 1-.066.315c-.036.087-.078.27-.093.406-.03.267-.017.279.296.252a.43.43 0 0 1 .227.063c.062.04.211.073.331.073.344 0 .517.22.315.4-.08.07-.15.08-.43.056-.184-.015-.378-.05-.43-.077a.8.8 0 0 0-.29-.05c-.19 0-.196.005-.226.186-.031.196-.118.3-.29.351-.192.057-.324-.185-.212-.39.086-.158-.011-.197-.578-.228-.58-.032-1.04-.026-1.106.014-.021.013-.018.077.007.142.071.184.057.441-.026.473-.148.055-.31-.031-.408-.218a.9.9 0 0 1-.096-.284c0-.094-.018-.098-.325-.07-.874.076-1.16.116-1.374.191l-.233.083.149.113c.082.063.149.152.149.198 0 .056.065.103.204.146.112.034.229.08.258.102.03.022.138.047.24.057.103.01.222.032.266.05.264.106 2.85.196 3.069.106m-9.886-21.38a.6.6 0 0 1-.127-.198c-.098-.232-.24-1.382-.196-1.59a3 3 0 0 0 .05-.337c.046-.555.111-.831.282-1.2.036-.077.089-.228.117-.335.03-.107.085-.22.125-.253a.22.22 0 0 0 .075-.135.6.6 0 0 1 .095-.217c.05-.078.147-.247.215-.377.203-.391.396-.698.471-.752.04-.028.152-.194.25-.37.098-.175.241-.363.317-.418s.138-.118.138-.141c0-.07.299-.409.385-.435.044-.014.106-.079.136-.144s.093-.132.14-.149c.046-.017.185-.133.308-.257.123-.125.247-.226.275-.226.027 0 .121-.061.208-.135.212-.182.513-.335.596-.304a.15.15 0 0 0 .127-.02.48.48 0 0 1 .521-.008c.265.184.14.367-.317.467a1.7 1.7 0 0 0-.4.143.7.7 0 0 1-.216.092c-.032 0-.16.095-.284.211-.124.117-.248.212-.275.212-.026 0-.085.055-.13.122a1 1 0 0 1-.266.236c-.1.063-.183.151-.183.197s-.108.188-.24.315c-.133.128-.24.252-.24.278 0 .025-.047.094-.104.153a1.3 1.3 0 0 0-.156.198c-.029.05-.154.236-.277.413s-.237.37-.255.428-.052.106-.077.106-.045.042-.045.093-.042.114-.094.141c-.055.03-.107.122-.126.225a.64.64 0 0 1-.12.27.8.8 0 0 0-.134.282c-.027.104-.091.337-.144.518a7.6 7.6 0 0 0-.254 1.407c-.023.235-.056.554-.075.71a5 5 0 0 0-.029.552c.002.149.001.27-.002.27zm5.855-8.21a.6.6 0 0 1-.082-.203c-.044-.212.06-.28.484-.32.535-.048 1.102.104.71.191-.367.082-.602.166-.767.275-.206.137-.269.148-.345.058M21.18 40.9c.224-.001.525.013.669.03.41.052.524.013.559-.19.015-.094.062-.298.103-.453s.092-.388.112-.517c.095-.606.136-.809.184-.918.047-.107.08-.256.201-.893.066-.345.226-1.048.274-1.2a.44.44 0 0 0 .025-.197c-.01-.031.008-.105.042-.165s.057-.123.052-.142c-.015-.052.12-.675.233-1.072.055-.194.121-.48.147-.635s.06-.314.077-.352c.035-.083.156-.67.176-.86a1 1 0 0 1 .064-.235c.075-.157.256-1.026.224-1.076-.015-.024 0-.075.031-.113.064-.076.253-1.01.213-1.05-.014-.013-.095 0-.18.03-.271.094-1.574.294-2.15.33-1.113.069-2.712.004-3.766-.153-.765-.114-.848-.13-.875-.172-.069-.11-.11-.022-.052.112.036.084.08.238.098.341.03.17.091.39.294 1.058.036.117.102.37.148.561s.112.404.148.47c.035.067.065.2.065.297s.043.245.096.33a.6.6 0 0 1 .096.262c0 .06.023.15.05.2s.072.212.1.361c.028.15.067.292.087.318s.063.174.097.33c.034.154.094.366.135.47.04.103.1.304.134.446.033.143.083.323.11.4.102.294.2.67.2.772 0 .057.026.15.057.207s.074.188.095.291c.048.24.16.685.196.776.015.04.054.177.086.306.032.13.113.383.179.565.066.18.13.413.143.517.013.103.042.208.066.233.024.024.043.113.043.197q-.002.288.337.218c.092-.019.352-.035.576-.035M16.82 29.916l.088-.186-.144-.204a2 2 0 0 0-.22-.266c-.041-.034-.075-.086-.075-.115s-.099-.112-.219-.183c-.362-.214-.56-.151-.643.204-.041.177-.035.226.039.326.048.065.133.14.19.169s.143.086.192.13a.3.3 0 0 0 .156.078c.038 0 .155.051.26.113s.215.114.24.116c.027.002.088-.08.136-.182m17.928-9.149c-.048-.122.03-.215.323-.384.365-.21.374-.212 2.11-.514.251-.043.49-.096.532-.117s.193-.043.337-.048a1.6 1.6 0 0 0 .422-.073c.09-.035.245-.064.346-.064s.239-.02.307-.046.258-.068.423-.096l.709-.117c.224-.037.505-.09.624-.116.12-.027.346-.07.505-.093.158-.025.574-.113.924-.197.589-.14.771-.152.658-.042-.064.063-.908.339-1.582.517-.317.084-.674.181-.793.215a11 11 0 0 1-.409.108c-.105.026-.29.071-.408.102-.119.03-.39.094-.6.141-.212.047-.46.11-.553.141-.15.05-.79.195-1.178.268a.6.6 0 0 0-.2.07c-.03.023-.278.095-.552.16-.273.064-.577.138-.674.164s-.416.06-.708.076c-.481.027-.533.022-.563-.055m-29.26-.155a14 14 0 0 0-.625-.103 5 5 0 0 1-.487-.09 3 3 0 0 0-.409-.067 1.2 1.2 0 0 1-.33-.072 6 6 0 0 0-.672-.17 37 37 0 0 1-.841-.181 20 20 0 0 0-.577-.127c-.514-.104-1.342-.335-1.459-.408-.19-.12-.054-.172.24-.092.142.039.518.104.835.146.317.04.75.105.96.142.413.071.637.103.996.141.62.066 1.311.188 1.576.278.119.04.274.075.345.075.072 0 .143.022.16.048.016.025.11.047.208.047s.221.028.273.063.35.113.66.172c.55.106.698.187.47.258-.148.046-.954.01-1.323-.06m1.994-7.16a2.3 2.3 0 0 1-.673-.272.7.7 0 0 0-.244-.104c-.043 0-.113-.039-.157-.087a1.6 1.6 0 0 0-.345-.217c-.146-.072-.276-.149-.289-.17a2 2 0 0 0-.3-.191 7 7 0 0 1-.604-.403c-.181-.137-.343-.249-.36-.249a.7.7 0 0 1-.173-.119c-.078-.065-.31-.25-.516-.408-.207-.16-.376-.307-.376-.328 0-.091.192-.024.492.173.177.117.333.212.346.212s.116.06.23.135c.113.075.4.236.638.357.238.122.465.248.505.28s.142.086.228.12c.086.033.156.079.156.101s.043.042.094.042c.11 0 .36.136.71.386.137.098.265.178.283.178.019 0 .105.053.191.118a.7.7 0 0 0 .203.117c.025 0 .072.032.105.07.033.04.112.071.174.071.08 0 .115.027.115.09 0 .14-.118.167-.433.097m25.977-1.454c-.034-.053.308-.346.598-.511.12-.069.238-.148.265-.176.07-.077.281-.2.767-.446.239-.12.607-.312.818-.424.212-.111.644-.334.962-.494s.722-.378.9-.485c.274-.164.325-.181.325-.109 0 .053-.143.188-.372.352l-.57.407c-.108.078-.217.142-.241.142-.025 0-.12.06-.212.133s-.2.147-.239.165c-.04.018-.13.07-.203.114-.58.364-.956.575-1.075.604-.077.018-.15.048-.164.067a1.6 1.6 0 0 1-.273.156c-.136.068-.262.145-.279.171-.016.027-.072.048-.124.048s-.245.074-.429.165c-.355.175-.41.19-.454.121M13.47 8.732c-.086-.089-.197-.17-.247-.179-.05-.01-.136-.089-.189-.177a4 4 0 0 0-.435-.498 5 5 0 0 1-.52-.605c-.1-.147-.23-.314-.29-.371-.175-.169-.461-.534-.461-.588 0-.028-.108-.166-.24-.308-.133-.141-.24-.273-.24-.291a.8.8 0 0 0-.133-.191 6 6 0 0 1-.3-.4 6 6 0 0 0-.3-.397 1 1 0 0 1-.133-.18c0-.023-.378-.594-.77-1.16-.228-.33-.496-.752-.657-1.035l-.398-.699c-.156-.275-.233-.457-.205-.484.028-.028.108.05.214.205.981 1.45.947 1.4 1.456 2.083.212.285.45.611.529.726s.216.284.304.376.186.21.216.263c.031.053.25.327.489.61.377.447.708.818 1.692 1.9.126.139.276.273.333.299a.36.36 0 0 1 .152.153c.028.06.14.168.25.242s.245.213.3.308c.085.149.09.192.04.311a.42.42 0 0 1-.18.193c-.11.05-.138.039-.278-.106m14.698-.842c.018-.11.053-.22.078-.244.025-.025.046-.12.046-.212s.032-.22.07-.284c.195-.332.801-1.619.964-2.047.049-.129.128-.285.176-.347a.4.4 0 0 0 .087-.173c0-.033.076-.236.168-.45s.168-.408.168-.43c0-.099.914-1.957 1.463-2.974.354-.657.4-.729.465-.729q.099-.001-.053.306a1.5 1.5 0 0 0-.095.219c-.002.029-.191.433-.582 1.239-.1.207-.236.524-.302.705-.065.182-.194.51-.285.73-.092.22-.21.537-.264.705-.053.168-.155.454-.227.635-.071.181-.16.414-.198.517s-.088.23-.112.283a3 3 0 0 0-.1.282 3.4 3.4 0 0 1-.168.423 2 2 0 0 0-.14.365c-.016.07-.05.13-.075.13-.026 0-.048.04-.048.089 0 .115-.237.608-.375.78a.5.5 0 0 0-.105.188c0 .072-.456.494-.533.494-.039 0-.046-.06-.023-.2m-7.331-.912c-.12-.14-.177-.61-.127-1.047.026-.222.05-1.309.053-2.415.004-1.106.022-2.01.039-2.01.064 0 .078.076.233 1.257.05.388.139 1.72.17 2.576q.033.876.097 1.254c.04.247-.081.462-.262.462-.076 0-.167-.034-.203-.077"/></g><defs><clipPath id="a"><path fill="#fff" d="M0 0h43v52H0z"/></clipPath></defs></svg>