<svg fill="none" viewBox="0 0 14.4 14.4"><g stroke="currentColor" stroke-linecap="round" stroke-linejoin="round" stroke-width="1.2"><path d="M7.2 13.2a6 6 0 1 1 0-12c1.592 0 3.118.569 4.243 1.582C12.568 3.794 13.2 5.168 13.2 6.6a3 3 0 0 1-3 3H8.85a1.05 1.05 0 0 0-.84 1.68l.18.24a1.05 1.05 0 0 1-.84 1.68z"/><path fill="currentColor" d="M8.1 4.2a.3.3 0 1 0 0-.6.3.3 0 0 0 0 .6m2.4 2.4a.3.3 0 1 0 0-.6.3.3 0 0 0 0 .6m-6.6 1.2a.3.3 0 1 0 0-.6.3.3 0 0 0 0 .6m1.2-3a.3.3 0 1 0 0-.6.3.3 0 0 0 0 .6"/></g></svg>