<svg fill="none" viewBox="0 0 14.4 14.4"><g stroke="currentColor" stroke-linecap="round" stroke-linejoin="round" stroke-width="1.2"><path d="M7.2 10.8V3m1.8 4.8a2.5 2.5 0 0 1-1.8-2.4 2.5 2.5 0 0 1-1.8 2.4m5.16-3.9A1.8 1.8 0 1 0 7.2 3a1.8 1.8 0 1 0-3.358.9"/><path d="M10.799 3.075a2.4 2.4 0 0 1 1.515 3.462"/><path d="M10.8 10.8a2.4 2.4 0 0 0 1.2-4.478"/><path d="M11.98 10.49a2.4 2.4 0 1 1-4.78.31 2.4 2.4 0 0 1-2.555 2.392A2.4 2.4 0 0 1 2.42 10.49"/><path d="M3.6 10.8a2.4 2.4 0 0 1-1.2-4.478"/><path d="M3.602 3.075a2.4 2.4 0 0 0-1.516 3.462"/></g></svg>