<svg fill="none" viewBox="0 0 102 102"><path fill="#8e9093" d="M33.634 55.397q.43 0 .846.053.841.074 1.672.255a13.3 13.3 0 0 1 10.323 11.148q.126.628.127 1.294v27.258a6.595 6.595 0 0 1-13.189 0V77.986l-12.39 12.391a6.595 6.595 0 1 1-9.327-9.326L24.16 68.586H6.595a6.595 6.595 0 1 1 0-13.19zm61.771 0a6.595 6.595 0 0 1 0 13.189H77.84L90.304 81.05a6.595 6.595 0 0 1-9.326 9.326l-12.391-12.39v17.418a6.595 6.595 0 0 1-13.19 0V68.147q.002-.665.128-1.294.073-.515.184-1.026A13.3 13.3 0 0 1 67.52 55.45q.416-.053.846-.053zM51 0a51 51 0 0 1 50.428 43.378C102.059 47.556 98.575 51 94.35 51s-7.568-3.464-8.466-7.592a35.7 35.7 0 0 0-69.768 0C15.218 47.536 11.876 51 7.65 51S-.06 47.556.572 43.378A51 51 0 0 1 51 0"/></svg>